
<svg width="494" height="772" viewBox="0 0 494 772" fill="none" xmlns="http://www.w3.org/2000/svg">
<path d="M659 -10.0909H615.133M659 -10.0909V33.8636M659 -10.0909V-54.0455M615.133 -10.0909H571.267M615.133 -10.0909V33.8636M615.133 -10.0909V-54.0455M571.267 -10.0909L527.4 -10.0909M571.267 -10.0909V33.8636M571.267 -10.0909V-54.0455M527.4 -10.0909H483.533M527.4 -10.0909V33.8636M527.4 -10.0909V-54.0455M483.533 -10.0909H439.667M483.533 -10.0909L483.533 33.8636M483.533 -10.0909V-54.0455M439.667 -10.0909H395.8M439.667 -10.0909L439.666 33.8636M439.667 -10.0909V-54.0455M395.8 -10.0909H351.933M395.8 -10.0909V33.8636M395.8 -10.0909V-54.0455M351.933 -10.0909L308.067 -10.0909M351.933 -10.0909V33.8636M351.933 -10.0909V-54.0455M308.067 -10.0909H264.2M308.067 -10.0909L308.067 33.8636M308.067 -10.0909V-54.0455M264.2 -10.0909H220.334M264.2 -10.0909L264.2 33.8636M264.2 -10.0909V-54.0455M220.334 -10.0909H176.467M220.334 -10.0909V33.8636M220.334 -10.0909V-54.0455M176.467 -10.0909H132.6M176.467 -10.0909L176.467 33.8636M176.467 -10.0909V-54.0455M132.6 -10.0909L88.7335 -10.0909M132.6 -10.0909L132.6 33.8636M132.6 -10.0909V-54.0455M88.7335 -10.0909H44.8669M88.7335 -10.0909V33.8636M88.7335 -10.0909V-54.0455M44.8669 -10.0909H1.00006M44.8669 -10.0909V33.8636M44.8669 -10.0909L44.8669 -54.0455M1.00006 -10.0909L1.00005 33.8636M1.00006 -10.0909L1.00006 -54.0455M395.8 385.5V341.545M395.8 385.5H439.666M395.8 385.5H351.933M395.8 385.5L395.8 429.454M395.8 341.545V297.591M395.8 341.545H439.666M395.8 341.545H351.933M395.8 297.591V253.636M395.8 297.591H439.666M395.8 297.591H351.933M395.8 253.636V209.682M395.8 253.636H439.666M395.8 253.636H351.933M395.8 209.682V165.727M395.8 209.682H439.666M395.8 209.682H351.933M395.8 165.727L395.8 121.773M395.8 165.727H439.666M395.8 165.727H351.933M395.8 121.773V77.818M395.8 121.773H439.666M395.8 121.773H351.933M395.8 77.818V33.8636M395.8 77.818H439.666M395.8 77.818H351.933M395.8 33.8636H439.666M395.8 33.8636H351.933M395.8 -54.0455L395.8 -98M395.8 -54.0455L439.667 -54.0455M395.8 -54.0455H351.933M395.8 -98L439.667 -98M395.8 -98L351.934 -98M615.133 -98L659 -98L659 -54.0455M615.133 -98L571.267 -98M615.133 -98V-54.0455M571.267 -98L527.4 -98M571.267 -98V-54.0455M527.4 -98L483.533 -98M527.4 -98V-54.0455M483.533 -98L439.667 -98M483.533 -98V-54.0455M439.667 -98V-54.0455M351.934 -98L308.067 -98M351.934 -98L351.933 -54.0455M308.067 -98L264.2 -98M308.067 -98V-54.0455M264.2 -98L220.334 -98M264.2 -98V-54.0455M220.334 -98L176.467 -98M220.334 -98V-54.0455M176.467 -98L132.6 -98M176.467 -98V-54.0455M132.6 -98L88.7335 -98M132.6 -98V-54.0455M88.7335 -98L44.8669 -98M88.7335 -98V-54.0455M44.8669 -98L1.00006 -98L1.00006 -54.0455M44.8669 -98V-54.0455M483.533 385.5L483.533 341.545M483.533 385.5H527.4M483.533 385.5L439.666 385.5M483.533 385.5L483.533 429.454M483.533 341.545V297.591M483.533 341.545H527.4M483.533 341.545L439.666 341.545M483.533 297.591V253.636M483.533 297.591H527.4M483.533 297.591L439.666 297.591M483.533 253.636V209.682M483.533 253.636H527.4M483.533 253.636L439.666 253.636M483.533 209.682V165.727M483.533 209.682H527.4M483.533 209.682H439.666M483.533 165.727V121.773M483.533 165.727H527.4M483.533 165.727H439.666M483.533 121.773V77.818M483.533 121.773H527.4M483.533 121.773H439.666M483.533 77.818V33.8636M483.533 77.818H527.4M483.533 77.818H439.666M483.533 33.8636H527.4M483.533 33.8636H439.666M483.533 -54.0455L527.4 -54.0455M483.533 -54.0455H439.667M571.266 385.5V341.545M571.266 385.5H615.133M571.266 385.5H527.4M571.266 385.5L571.267 429.455M571.266 341.545L571.267 297.591M571.266 341.545H615.133M571.266 341.545H527.4M571.267 297.591V253.636M571.267 297.591H615.133M571.267 297.591H527.4M571.267 253.636V209.682M571.267 253.636H615.133M571.267 253.636H527.4M571.267 209.682V165.727M571.267 209.682H615.133M571.267 209.682H527.4M571.267 165.727V121.773M571.267 165.727H615.133M571.267 165.727H527.4M571.267 121.773V77.818M571.267 121.773H615.133M571.267 121.773H527.4M571.267 77.818L571.267 33.8636M571.267 77.818H615.133M571.267 77.818H527.4M571.267 33.8636H615.133M571.267 33.8636L527.4 33.8636M571.267 -54.0455H615.133M571.267 -54.0455H527.4M527.4 385.5V341.545M527.4 385.5L527.4 429.454M527.4 341.545L527.4 297.591M527.4 297.591V253.636M527.4 253.636V209.682M527.4 209.682V165.727M527.4 165.727V121.773M527.4 121.773V77.818M527.4 77.818L527.4 33.8636M615.133 385.5V341.545M615.133 385.5H659M615.133 385.5L615.133 429.455M615.133 341.545V297.591M615.133 341.545H659M615.133 297.591V253.636M615.133 297.591H659M615.133 253.636V209.682M615.133 253.636H659M615.133 209.682V165.727M615.133 209.682H659M615.133 165.727L615.133 121.773M615.133 165.727H659M615.133 121.773V77.818M615.133 121.773H659M615.133 77.818V33.8636M615.133 77.818H659M615.133 33.8636H659M615.133 -54.0455L659 -54.0455M659 77.818V121.773M659 77.818V33.8636M439.666 77.818V121.773M439.666 77.818V33.8636M351.933 77.818H308.067M351.933 77.818V121.773M351.933 77.818V33.8636M308.067 77.818H264.2M308.067 77.818V121.773M308.067 77.818V33.8636M264.2 77.818L220.334 77.818M264.2 77.818V121.773M264.2 77.818V33.8636M220.334 77.818H176.467M220.334 77.818V121.773M220.334 77.818V33.8636M176.467 77.818H132.6M176.467 77.818V121.773M176.467 77.818V33.8636M132.6 77.818H88.7335M132.6 77.818V121.773M132.6 77.818L132.6 33.8636M88.7335 77.818H44.8669M88.7335 77.818V121.773M88.7335 77.818L88.7335 33.8636M44.8669 77.818H1.00005M44.8669 77.818L44.8669 121.773M44.8669 77.818V33.8636M1.00005 77.818L1.00005 121.773M1.00005 77.818L1.00005 33.8636M308.067 385.5V341.545M308.067 385.5H351.933M308.067 385.5H264.2M308.067 385.5L308.067 429.454M308.067 341.545V297.591M308.067 341.545H351.933M308.067 341.545H264.2M308.067 297.591L308.067 253.636M308.067 297.591H351.933M308.067 297.591H264.2M308.067 253.636V209.682M308.067 253.636H351.933M308.067 253.636H264.2M308.067 209.682V165.727M308.067 209.682H351.933M308.067 209.682H264.2M308.067 165.727L308.067 121.773M308.067 165.727H351.933M308.067 165.727H264.2M308.067 121.773H351.933M308.067 121.773H264.2M308.067 33.8636L351.933 33.8636M308.067 33.8636H264.2M308.067 -54.0455H351.933M308.067 -54.0455L264.2 -54.0455M659 165.727V209.682M659 165.727V121.773M439.666 165.727V209.682M439.666 165.727V121.773M351.933 165.727V209.682M351.933 165.727L351.933 121.773M264.2 165.727L220.334 165.727M264.2 165.727V209.682M264.2 165.727L264.2 121.773M220.334 165.727H176.467M220.334 165.727V209.682M220.334 165.727L220.334 121.773M176.467 165.727H132.6M176.467 165.727V209.682M176.467 165.727L176.467 121.773M132.6 165.727H88.7334M132.6 165.727V209.682M132.6 165.727V121.773M88.7334 165.727H44.8669M88.7334 165.727V209.682M88.7334 165.727L88.7335 121.773M44.8669 165.727H1.00005M44.8669 165.727V209.682M44.8669 165.727L44.8669 121.773M1.00005 165.727L1.00005 209.682M1.00005 165.727L1.00005 121.773M220.334 385.5V341.545M220.334 385.5H264.2M220.334 385.5H176.467M220.334 385.5L220.334 429.454M220.334 341.545V297.591M220.334 341.545H264.2M220.334 341.545H176.467M220.334 297.591V253.636M220.334 297.591H264.2M220.334 297.591H176.467M220.334 253.636V209.682M220.334 253.636H264.2M220.334 253.636H176.467M220.334 209.682L264.2 209.682M220.334 209.682H176.467M220.334 121.773L264.2 121.773M220.334 121.773H176.467M220.334 33.8636H264.2M220.334 33.8636H176.467M220.334 -54.0455H264.2M220.334 -54.0455H176.467M659 253.636V297.591M659 253.636V209.682M439.666 253.636V297.591M439.666 253.636V209.682M351.933 253.636V297.591M351.933 253.636V209.682M264.2 253.636L264.2 297.591M264.2 253.636V209.682M176.467 253.636H132.6M176.467 253.636L176.467 297.591M176.467 253.636V209.682M132.6 253.636H88.7334M132.6 253.636L132.6 297.591M132.6 253.636V209.682M88.7334 253.636H44.8669M88.7334 253.636L88.7334 297.591M88.7334 253.636V209.682M44.8669 253.636H1.00005M44.8669 253.636V297.591M44.8669 253.636L44.8669 209.682M1.00005 253.636L1.00004 297.591M1.00005 253.636L1.00005 209.682M132.6 385.5V341.545M132.6 385.5H176.467M132.6 385.5H88.7334M132.6 385.5L132.6 429.454M132.6 341.545V297.591M132.6 341.545H176.467M132.6 341.545H88.7334M132.6 297.591H176.467M132.6 297.591H88.7334M132.6 209.682H176.467M132.6 209.682H88.7334M132.6 121.773H176.467M132.6 121.773H88.7335M132.6 33.8636H176.467M132.6 33.8636L88.7335 33.8636M132.6 -54.0455L176.467 -54.0455M132.6 -54.0455H88.7335M659 341.545V385.5M659 341.545V297.591M439.666 341.545L439.666 385.5M439.666 341.545V297.591M351.933 341.545V385.5M351.933 341.545V297.591M264.2 341.545V385.5M264.2 341.545V297.591M176.467 341.545V385.5M176.467 341.545V297.591M88.7334 341.545H44.8669M88.7334 341.545V385.5M88.7334 341.545V297.591M44.8669 341.545H1.00004M44.8669 341.545V385.5M44.8669 341.545L44.8669 297.591M1.00004 341.545L1 385.5M1.00004 341.545L1.00004 297.591M44.8669 385.5H88.7334M44.8669 385.5H1M44.8669 385.5L44.8669 429.454M44.8669 297.591H88.7334M44.8669 297.591H1.00004M44.8669 209.682H88.7334M44.8669 209.682H1.00005M44.8669 121.773H88.7335M44.8669 121.773H1.00005M44.8669 33.8636H88.7335M44.8669 33.8636H1.00005M44.8669 -54.0455L88.7335 -54.0455M44.8669 -54.0455H1.00006M351.933 385.5L351.933 429.454M439.666 385.5L439.667 429.454M264.2 385.5L264.2 429.454M176.467 385.5L176.467 429.454M88.7334 385.5L88.7335 429.454M1 385.5L1.00006 429.454M659 385.5V429.455M659 473.409H615.133M659 473.409V517.364M659 473.409V429.455M615.133 473.409H571.267M615.133 473.409V517.364M615.133 473.409V429.455M571.267 473.409H527.4M571.267 473.409V517.364M571.267 473.409V429.455M527.4 473.409H483.533M527.4 473.409V517.364M527.4 473.409V429.454M483.533 473.409L439.667 473.409M483.533 473.409L483.533 517.364M483.533 473.409V429.454M439.667 473.409H395.8M439.667 473.409L439.666 517.364M439.667 473.409V429.454M395.8 473.409H351.933M395.8 473.409V517.364M395.8 473.409V429.454M351.933 473.409H308.067M351.933 473.409V517.364M351.933 473.409V429.454M308.067 473.409H264.2M308.067 473.409L308.067 517.364M308.067 473.409V429.454M264.2 473.409H220.334M264.2 473.409L264.2 517.364M264.2 473.409V429.454M220.334 473.409H176.467M220.334 473.409V517.364M220.334 473.409V429.454M176.467 473.409H132.6M176.467 473.409L176.467 517.364M176.467 473.409V429.454M132.6 473.409H88.7335M132.6 473.409L132.6 517.364M132.6 473.409V429.454M88.7335 473.409H44.8669M88.7335 473.409V517.364M88.7335 473.409V429.454M44.8669 473.409H1.00006M44.8669 473.409V517.364M44.8669 473.409L44.8669 429.454M1.00006 473.409L1.00005 517.364M1.00006 473.409L1.00006 429.454M395.8 869V825.045M395.8 869H439.666M395.8 869H351.933M395.8 825.045V781.091M395.8 825.045H439.666M395.8 825.045H351.933M395.8 781.091V737.136M395.8 781.091H439.666M395.8 781.091H351.933M395.8 737.136V693.182M395.8 737.136H439.666M395.8 737.136H351.933M395.8 693.182V649.227M395.8 693.182H439.666M395.8 693.182H351.933M395.8 649.227L395.8 605.273M395.8 649.227H439.666M395.8 649.227H351.933M395.8 605.273V561.318M395.8 605.273H439.666M395.8 605.273H351.933M395.8 561.318V517.364M395.8 561.318H439.666M395.8 561.318H351.933M395.8 517.364H439.666M395.8 517.364H351.933M395.8 429.454H439.667M395.8 429.454H351.933M483.533 869L483.533 825.045M483.533 869H527.4M483.533 869H439.666M483.533 825.045V781.091M483.533 825.045H527.4M483.533 825.045H439.666M483.533 781.091V737.136M483.533 781.091H527.4M483.533 781.091H439.666M483.533 737.136V693.182M483.533 737.136H527.4M483.533 737.136H439.666M483.533 693.182V649.227M483.533 693.182H527.4M483.533 693.182H439.666M483.533 649.227V605.273M483.533 649.227H527.4M483.533 649.227L439.666 649.227M483.533 605.273V561.318M483.533 605.273H527.4M483.533 605.273H439.666M483.533 561.318V517.364M483.533 561.318H527.4M483.533 561.318H439.666M483.533 517.364H527.4M483.533 517.364L439.666 517.364M483.533 429.454H527.4M483.533 429.454H439.667M571.266 869V825.045M571.266 869H615.133M571.266 869H527.4M571.266 825.045L571.267 781.091M571.266 825.045H615.133M571.266 825.045H527.4M571.267 781.091V737.136M571.267 781.091H615.133M571.267 781.091H527.4M571.267 737.136V693.182M571.267 737.136H615.133M571.267 737.136H527.4M571.267 693.182V649.227M571.267 693.182H615.133M571.267 693.182H527.4M571.267 649.227V605.273M571.267 649.227H615.133M571.267 649.227H527.4M571.267 605.273V561.318M571.267 605.273H615.133M571.267 605.273H527.4M571.267 561.318L571.267 517.364M571.267 561.318H615.133M571.267 561.318H527.4M571.267 517.364H615.133M571.267 517.364H527.4M571.267 429.455H615.133M571.267 429.455L527.4 429.454M527.4 869V825.045M527.4 825.045L527.4 781.091M527.4 781.091V737.136M527.4 737.136V693.182M527.4 693.182V649.227M527.4 649.227V605.273M527.4 605.273V561.318M527.4 561.318L527.4 517.364M615.133 869V825.045M615.133 869H659V825.045M615.133 825.045V781.091M615.133 825.045H659M615.133 781.091V737.136M615.133 781.091H659M615.133 737.136V693.182M615.133 737.136H659M615.133 693.182V649.227M615.133 693.182H659M615.133 649.227L615.133 605.273M615.133 649.227H659M615.133 605.273V561.318M615.133 605.273H659M615.133 561.318V517.364M615.133 561.318H659M615.133 517.364H659M615.133 429.455H659M659 561.318V605.273M659 561.318V517.364M439.666 561.318V605.273M439.666 561.318V517.364M351.933 561.318H308.067M351.933 561.318V605.273M351.933 561.318V517.364M308.067 561.318H264.2M308.067 561.318V605.273M308.067 561.318V517.364M264.2 561.318H220.334M264.2 561.318V605.273M264.2 561.318V517.364M220.334 561.318H176.467M220.334 561.318V605.273M220.334 561.318V517.364M176.467 561.318H132.6M176.467 561.318V605.273M176.467 561.318V517.364M132.6 561.318H88.7335M132.6 561.318V605.273M132.6 561.318L132.6 517.364M88.7335 561.318H44.8669M88.7335 561.318V605.273M88.7335 561.318L88.7335 517.364M44.8669 561.318L1.00005 561.318M44.8669 561.318L44.8669 605.273M44.8669 561.318V517.364M1.00005 561.318L1.00005 605.273M1.00005 561.318L1.00005 517.364M308.067 869V825.045M308.067 869H351.933M308.067 869H264.2M308.067 825.045V781.091M308.067 825.045H351.933M308.067 825.045H264.2M308.067 781.091L308.067 737.136M308.067 781.091H351.933M308.067 781.091H264.2M308.067 737.136V693.182M308.067 737.136H351.933M308.067 737.136H264.2M308.067 693.182V649.227M308.067 693.182H351.933M308.067 693.182H264.2M308.067 649.227L308.067 605.273M308.067 649.227H351.933M308.067 649.227H264.2M308.067 605.273H351.933M308.067 605.273H264.2M308.067 517.364H351.933M308.067 517.364H264.2M308.067 429.454H351.933M308.067 429.454H264.2M659 649.227V693.182M659 649.227V605.273M439.666 649.227V693.182M439.666 649.227V605.273M351.933 649.227V693.182M351.933 649.227L351.933 605.273M264.2 649.227H220.334M264.2 649.227V693.182M264.2 649.227L264.2 605.273M220.334 649.227H176.467M220.334 649.227V693.182M220.334 649.227L220.334 605.273M176.467 649.227H132.6M176.467 649.227V693.182M176.467 649.227L176.467 605.273M132.6 649.227H88.7334M132.6 649.227V693.182M132.6 649.227V605.273M88.7334 649.227H44.8669M88.7334 649.227V693.182M88.7334 649.227L88.7335 605.273M44.8669 649.227H1.00005M44.8669 649.227V693.182M44.8669 649.227L44.8669 605.273M1.00005 649.227L1.00005 693.182M1.00005 649.227L1.00005 605.273M220.334 869V825.045M220.334 869H264.2M220.334 869H176.467M220.334 825.045V781.091M220.334 825.045H264.2M220.334 825.045H176.467M220.334 781.091V737.136M220.334 781.091H264.2M220.334 781.091H176.467M220.334 737.136V693.182M220.334 737.136H264.2M220.334 737.136H176.467M220.334 693.182H264.2M220.334 693.182H176.467M220.334 605.273H264.2M220.334 605.273H176.467M220.334 517.364H264.2M220.334 517.364H176.467M220.334 429.454H264.2M220.334 429.454H176.467M659 737.136V781.091M659 737.136V693.182M439.666 737.136V781.091M439.666 737.136V693.182M351.933 737.136V781.091M351.933 737.136V693.182M264.2 737.136L264.2 781.091M264.2 737.136V693.182M176.467 737.136H132.6M176.467 737.136L176.467 781.091M176.467 737.136V693.182M132.6 737.136H88.7334M132.6 737.136L132.6 781.091M132.6 737.136V693.182M88.7334 737.136H44.8669M88.7334 737.136L88.7334 781.091M88.7334 737.136V693.182M44.8669 737.136H1.00005M44.8669 737.136V781.091M44.8669 737.136L44.8669 693.182M1.00005 737.136L1.00004 781.091M1.00005 737.136L1.00005 693.182M132.6 869V825.045M132.6 869H176.467M132.6 869H88.7334M132.6 825.045V781.091M132.6 825.045H176.467M132.6 825.045H88.7334M132.6 781.091H176.467M132.6 781.091H88.7334M132.6 693.182H176.467M132.6 693.182H88.7334M132.6 605.273H176.467M132.6 605.273H88.7335M132.6 517.364H176.467M132.6 517.364H88.7335M132.6 429.454H176.467M132.6 429.454H88.7335M659 825.045V781.091M439.666 825.045L439.666 869M439.666 825.045V781.091M351.933 825.045V869M351.933 825.045V781.091M264.2 825.045V869M264.2 825.045V781.091M176.467 825.045V869M176.467 825.045V781.091M88.7334 825.045H44.8669M88.7334 825.045V869M88.7334 825.045V781.091M44.8669 825.045L1.00004 825.045M44.8669 825.045V869M44.8669 825.045L44.8669 781.091M1.00004 825.045L1 869H44.8669M1.00004 825.045L1.00004 781.091M44.8669 869H88.7334M44.8669 781.091H88.7334M44.8669 781.091L1.00004 781.091M44.8669 693.182H88.7334M44.8669 693.182H1.00005M44.8669 605.273H88.7335M44.8669 605.273L1.00005 605.273M44.8669 517.364H88.7335M44.8669 517.364H1.00005M44.8669 429.454H88.7335M44.8669 429.454H1.00006" stroke="#1B1D20"/>
</svg>
