<svg xmlns="http://www.w3.org/2000/svg" width="969" height="660" viewBox="0 0 969 660" fill="none">
    <path d="M880.091 659L880.091 615.133M880.091 659L836.136 659M880.091 659L924.045 659M880.091 615.133L880.091 571.267M880.091 615.133L836.136 615.133M880.091 615.133L924.045 615.133M880.091 571.267L880.091 527.4M880.091 571.267L836.136 571.267M880.091 571.267L924.045 571.267M880.091 527.4L880.091 483.533M880.091 527.4L836.136 527.4M880.091 527.4L924.045 527.4M880.091 483.533L880.091 439.667M880.091 483.533L836.136 483.533M880.091 483.533L924.045 483.533M880.091 439.667L880.091 395.8M880.091 439.667L836.136 439.666M880.091 439.667L924.045 439.667M880.091 395.8L880.091 351.933M880.091 395.8L836.136 395.8M880.091 395.8L924.045 395.8M880.091 351.933L880.091 308.067M880.091 351.933L836.136 351.933M880.091 351.933L924.045 351.933M880.091 308.067L880.091 264.2M880.091 308.067L836.136 308.067M880.091 308.067L924.045 308.067M880.091 264.2L880.091 220.334M880.091 264.2L836.136 264.2M880.091 264.2L924.045 264.2M880.091 220.334L880.091 176.467M880.091 220.334L836.136 220.334M880.091 220.334L924.045 220.334M880.091 176.467L880.091 132.6M880.091 176.467L836.136 176.467M880.091 176.467L924.045 176.467M880.091 132.6L880.091 88.7335M880.091 132.6L836.136 132.6M880.091 132.6L924.046 132.6M880.091 88.7335L880.091 44.8669M880.091 88.7335L836.136 88.7335M880.091 88.7335L924.046 88.7335M880.091 44.8669L880.091 1.00005M880.091 44.8669L836.136 44.8669M880.091 44.8669L924.046 44.8669M880.091 1.00005L836.136 1.00005M880.091 1.00005L924.046 1.00006M484.5 395.8L528.455 395.8M484.5 395.8L484.5 439.666M484.5 395.8L484.5 351.933M484.5 395.8L440.546 395.8M528.455 395.8L572.409 395.8M528.455 395.8L528.455 439.666M528.455 395.8L528.455 351.933M572.409 395.8L616.364 395.8M572.409 395.8L572.409 439.666M572.409 395.8L572.409 351.933M616.364 395.8L660.318 395.8M616.364 395.8L616.364 439.666M616.364 395.8L616.364 351.933M660.318 395.8L704.273 395.8M660.318 395.8L660.318 439.666M660.318 395.8L660.318 351.933M704.273 395.8L748.227 395.8M704.273 395.8L704.273 439.666M704.273 395.8L704.273 351.933M748.227 395.8L792.182 395.8M748.227 395.8L748.227 439.666M748.227 395.8L748.227 351.933M792.182 395.8L836.136 395.8M792.182 395.8L792.182 439.666M792.182 395.8L792.182 351.933M836.136 395.8L836.136 439.666M836.136 395.8L836.136 351.933M924.045 395.8L968 395.8M924.045 395.8L924.045 439.667M924.045 395.8L924.045 351.933M968 395.8L968 439.667M968 395.8L968 351.934M968 615.133L968 659L924.045 659M968 615.133L968 571.267M968 615.133L924.045 615.133M968 571.267L968 527.4M968 571.267L924.045 571.267M968 527.4L968 483.533M968 527.4L924.045 527.4M968 483.533L968 439.667M968 483.533L924.045 483.533M968 439.667L924.045 439.667M968 351.934L968 308.067M968 351.934L924.045 351.933M968 308.067L968 264.2M968 308.067L924.045 308.067M968 264.2L968 220.334M968 264.2L924.045 264.2M968 220.334L968 176.467M968 220.334L924.045 220.334M968 176.467L968 132.6M968 176.467L924.045 176.467M968 132.6L968 88.7335M968 132.6L924.046 132.6M968 88.7335L968 44.8669M968 88.7335L924.046 88.7335M968 44.8669L968 1.00006L924.046 1.00006M968 44.8669L924.046 44.8669M484.5 483.533L528.455 483.533M484.5 483.533L484.5 527.4M484.5 483.533L484.5 439.666M484.5 483.533L440.545 483.533M528.455 483.533L572.409 483.533M528.455 483.533L528.455 527.4M528.455 483.533L528.455 439.666M572.409 483.533L616.364 483.533M572.409 483.533L572.409 527.4M572.409 483.533L572.409 439.666M616.364 483.533L660.318 483.533M616.364 483.533L616.364 527.4M616.364 483.533L616.364 439.666M660.318 483.533L704.273 483.533M660.318 483.533L660.318 527.4M660.318 483.533L660.318 439.666M704.273 483.533L748.227 483.533M704.273 483.533L704.273 527.4M704.273 483.533L704.273 439.666M748.227 483.533L792.182 483.533M748.227 483.533L748.227 527.4M748.227 483.533L748.227 439.666M792.182 483.533L836.136 483.533M792.182 483.533L792.182 527.4M792.182 483.533L792.182 439.666M836.136 483.533L836.136 527.4M836.136 483.533L836.136 439.666M924.045 483.533L924.045 527.4M924.045 483.533L924.045 439.667M484.5 571.266L528.455 571.266M484.5 571.266L484.5 615.133M484.5 571.266L484.5 527.4M484.5 571.266L440.545 571.267M528.455 571.266L572.409 571.267M528.455 571.266L528.455 615.133M528.455 571.266L528.455 527.4M572.409 571.267L616.364 571.267M572.409 571.267L572.409 615.133M572.409 571.267L572.409 527.4M616.364 571.267L660.318 571.267M616.364 571.267L616.364 615.133M616.364 571.267L616.364 527.4M660.318 571.267L704.273 571.267M660.318 571.267L660.318 615.133M660.318 571.267L660.318 527.4M704.273 571.267L748.227 571.267M704.273 571.267L704.273 615.133M704.273 571.267L704.273 527.4M748.227 571.267L792.182 571.267M748.227 571.267L748.227 615.133M748.227 571.267L748.227 527.4M792.182 571.267L836.136 571.267M792.182 571.267L792.182 615.133M792.182 571.267L792.182 527.4M836.136 571.267L836.136 615.133M836.136 571.267L836.136 527.4M924.045 571.267L924.045 615.133M924.045 571.267L924.045 527.4M484.5 527.4L528.455 527.4M484.5 527.4L440.545 527.4M528.455 527.4L572.409 527.4M572.409 527.4L616.364 527.4M616.364 527.4L660.318 527.4M660.318 527.4L704.273 527.4M704.273 527.4L748.227 527.4M748.227 527.4L792.182 527.4M792.182 527.4L836.136 527.4M484.5 615.133L528.455 615.133M484.5 615.133L484.5 659M484.5 615.133L440.545 615.133M528.455 615.133L572.409 615.133M528.455 615.133L528.455 659M572.409 615.133L616.364 615.133M572.409 615.133L572.409 659M616.364 615.133L660.318 615.133M616.364 615.133L616.364 659M660.318 615.133L704.273 615.133M660.318 615.133L660.318 659M704.273 615.133L748.227 615.133M704.273 615.133L704.273 659M748.227 615.133L792.182 615.133M748.227 615.133L748.227 659M792.182 615.133L836.136 615.133M792.182 615.133L792.182 659M836.136 615.133L836.136 659M924.045 615.133L924.045 659M792.182 659L748.227 659M792.182 659L836.136 659M792.182 439.666L748.227 439.666M792.182 439.666L836.136 439.666M792.182 351.933L792.182 308.067M792.182 351.933L748.227 351.933M792.182 351.933L836.136 351.933M792.182 308.067L792.182 264.2M792.182 308.067L748.227 308.067M792.182 308.067L836.136 308.067M792.182 264.2L792.182 220.334M792.182 264.2L748.227 264.2M792.182 264.2L836.136 264.2M792.182 220.334L792.182 176.467M792.182 220.334L748.227 220.334M792.182 220.334L836.136 220.334M792.182 176.467L792.182 132.6M792.182 176.467L748.227 176.467M792.182 176.467L836.136 176.467M792.182 132.6L792.182 88.7335M792.182 132.6L748.227 132.6M792.182 132.6L836.136 132.6M792.182 88.7335L792.182 44.8669M792.182 88.7335L748.227 88.7335M792.182 88.7335L836.136 88.7335M792.182 44.8669L792.182 1.00005M792.182 44.8669L748.227 44.8669M792.182 44.8669L836.136 44.8669M792.182 1.00005L748.227 1.00004M792.182 1.00005L836.136 1.00005M484.5 308.067L528.455 308.067M484.5 308.067L484.5 351.933M484.5 308.067L484.5 264.2M484.5 308.067L440.546 308.067M528.455 308.067L572.409 308.067M528.455 308.067L528.455 351.933M528.455 308.067L528.455 264.2M572.409 308.067L616.364 308.067M572.409 308.067L572.409 351.933M572.409 308.067L572.409 264.2M616.364 308.067L660.318 308.067M616.364 308.067L616.364 351.933M616.364 308.067L616.364 264.2M660.318 308.067L704.273 308.067M660.318 308.067L660.318 351.933M660.318 308.067L660.318 264.2M704.273 308.067L748.227 308.067M704.273 308.067L704.273 351.933M704.273 308.067L704.273 264.2M748.227 308.067L748.227 351.933M748.227 308.067L748.227 264.2M836.136 308.067L836.136 351.933M836.136 308.067L836.136 264.2M924.045 308.067L924.045 351.933M924.045 308.067L924.045 264.2M704.273 659L660.318 659M704.273 659L748.227 659M704.273 439.666L660.318 439.666M704.273 439.666L748.227 439.666M704.273 351.933L660.318 351.933M704.273 351.933L748.227 351.933M704.273 264.2L704.273 220.333M704.273 264.2L660.318 264.2M704.273 264.2L748.227 264.2M704.273 220.333L704.273 176.467M704.273 220.333L660.318 220.333M704.273 220.333L748.227 220.334M704.273 176.467L704.273 132.6M704.273 176.467L660.318 176.467M704.273 176.467L748.227 176.467M704.273 132.6L704.273 88.7334M704.273 132.6L660.318 132.6M704.273 132.6L748.227 132.6M704.273 88.7334L704.273 44.8669M704.273 88.7334L660.318 88.7334M704.273 88.7334L748.227 88.7335M704.273 44.8669L704.273 1.00004M704.273 44.8669L660.318 44.8669M704.273 44.8669L748.227 44.8669M704.273 1.00004L660.318 1.00003M704.273 1.00004L748.227 1.00004M484.5 220.333L528.455 220.333M484.5 220.333L484.5 264.2M484.5 220.333L484.5 176.467M484.5 220.333L440.546 220.334M528.455 220.333L572.409 220.333M528.455 220.333L528.455 264.2M528.455 220.333L528.455 176.467M572.409 220.333L616.364 220.333M572.409 220.333L572.409 264.2M572.409 220.333L572.409 176.467M616.364 220.333L660.318 220.333M616.364 220.333L616.364 264.2M616.364 220.333L616.364 176.467M660.318 220.333L660.318 264.2M660.318 220.333L660.318 176.467M748.227 220.334L748.227 264.2M748.227 220.334L748.227 176.467M836.136 220.334L836.136 264.2M836.136 220.334L836.136 176.467M924.045 220.334L924.045 264.2M924.045 220.334L924.045 176.467M616.364 659L572.409 659M616.364 659L660.318 659M616.364 439.666L572.409 439.666M616.364 439.666L660.318 439.666M616.364 351.933L572.409 351.933M616.364 351.933L660.318 351.933M616.364 264.2L572.409 264.2M616.364 264.2L660.318 264.2M616.364 176.467L616.364 132.6M616.364 176.467L572.409 176.467M616.364 176.467L660.318 176.467M616.364 132.6L616.364 88.7334M616.364 132.6L572.409 132.6M616.364 132.6L660.318 132.6M616.364 88.7334L616.364 44.8669M616.364 88.7334L572.409 88.7334M616.364 88.7334L660.318 88.7334M616.364 44.8669L616.364 1.00003M616.364 44.8669L572.409 44.8669M616.364 44.8669L660.318 44.8669M616.364 1.00003L572.409 1.00003M616.364 1.00003L660.318 1.00003M484.5 132.6L528.455 132.6M484.5 132.6L484.5 176.467M484.5 132.6L484.5 88.7334M484.5 132.6L440.546 132.6M528.455 132.6L572.409 132.6M528.455 132.6L528.455 176.467M528.455 132.6L528.455 88.7334M572.409 132.6L572.409 176.467M572.409 132.6L572.409 88.7334M660.318 132.6L660.318 176.467M660.318 132.6L660.318 88.7334M748.227 132.6L748.227 176.467M748.227 132.6L748.227 88.7335M836.136 132.6L836.136 176.467M836.136 132.6L836.136 88.7335M924.046 132.6L924.045 176.467M924.046 132.6L924.046 88.7335M528.455 659L484.5 659M528.455 659L572.409 659M528.455 439.666L484.5 439.666M528.455 439.666L572.409 439.666M528.455 351.933L484.5 351.933M528.455 351.933L572.409 351.933M528.455 264.2L484.5 264.2M528.455 264.2L572.409 264.2M528.455 176.467L484.5 176.467M528.455 176.467L572.409 176.467M528.455 88.7334L528.455 44.8668M528.455 88.7334L484.5 88.7334M528.455 88.7334L572.409 88.7334M528.455 44.8668L528.455 1.00002M528.455 44.8668L484.5 44.8668M528.455 44.8668L572.409 44.8669M528.455 1.00002L484.5 0.999979M528.455 1.00002L572.409 1.00003M484.5 44.8668L484.5 88.7334M484.5 44.8668L484.5 0.999979M484.5 44.8668L440.546 44.8669M572.409 44.8669L572.409 88.7334M572.409 44.8669L572.409 1.00003M660.318 44.8669L660.318 88.7334M660.318 44.8669L660.318 1.00003M748.227 44.8669L748.227 88.7335M748.227 44.8669L748.227 1.00004M836.136 44.8669L836.136 88.7335M836.136 44.8669L836.136 1.00005M924.046 44.8669L924.046 88.7335M924.046 44.8669L924.046 1.00006M484.5 351.933L440.546 351.933M484.5 439.666L440.545 439.667M484.5 264.2L440.546 264.2M484.5 176.467L440.546 176.467M484.5 88.7334L440.546 88.7335M484.5 0.999979L440.546 1.00004M484.5 659L440.545 659M396.591 659L396.591 615.133M396.591 659L352.636 659M396.591 659L440.545 659M396.591 615.133L396.591 571.267M396.591 615.133L352.636 615.133M396.591 615.133L440.545 615.133M396.591 571.267L396.591 527.4M396.591 571.267L352.636 571.267M396.591 571.267L440.545 571.267M396.591 527.4L396.591 483.533M396.591 527.4L352.636 527.4M396.591 527.4L440.545 527.4M396.591 483.533L396.591 439.667M396.591 483.533L352.636 483.533M396.591 483.533L440.545 483.533M396.591 439.667L396.591 395.8M396.591 439.667L352.636 439.666M396.591 439.667L440.545 439.667M396.591 395.8L396.591 351.933M396.591 395.8L352.636 395.8M396.591 395.8L440.546 395.8M396.591 351.933L396.591 308.067M396.591 351.933L352.636 351.933M396.591 351.933L440.546 351.933M396.591 308.067L396.591 264.2M396.591 308.067L352.636 308.067M396.591 308.067L440.546 308.067M396.591 264.2L396.591 220.334M396.591 264.2L352.636 264.2M396.591 264.2L440.546 264.2M396.591 220.334L396.591 176.467M396.591 220.334L352.636 220.334M396.591 220.334L440.546 220.334M396.591 176.467L396.591 132.6M396.591 176.467L352.636 176.467M396.591 176.467L440.546 176.467M396.591 132.6L396.591 88.7335M396.591 132.6L352.636 132.6M396.591 132.6L440.546 132.6M396.591 88.7335L396.591 44.8669M396.591 88.7335L352.636 88.7334M396.591 88.7335L440.546 88.7335M396.591 44.8669L396.591 1.00003M396.591 44.8669L352.636 44.8669M396.591 44.8669L440.546 44.8669M396.591 1.00003L352.636 1.00003M396.591 1.00003L440.546 1.00004M0.999999 395.8L44.9545 395.8M0.999999 395.8L0.999997 439.666M0.999999 395.8L1 351.933M44.9545 395.8L88.9091 395.8M44.9545 395.8L44.9545 439.666M44.9545 395.8L44.9545 351.933M88.9091 395.8L132.864 395.8M88.9091 395.8L88.9091 439.666M88.9091 395.8L88.9091 351.933M132.864 395.8L176.818 395.8M132.864 395.8L132.864 439.666M132.864 395.8L132.864 351.933M176.818 395.8L220.773 395.8M176.818 395.8L176.818 439.666M176.818 395.8L176.818 351.933M220.773 395.8L264.727 395.8M220.773 395.8L220.773 439.666M220.773 395.8L220.773 351.933M264.727 395.8L308.682 395.8M264.727 395.8L264.727 439.666M264.727 395.8L264.727 351.933M308.682 395.8L352.636 395.8M308.682 395.8L308.682 439.666M308.682 395.8L308.682 351.933M352.636 395.8L352.636 439.666M352.636 395.8L352.636 351.933M440.546 395.8L440.545 439.667M440.546 395.8L440.546 351.933M0.999995 483.533L44.9545 483.533M0.999995 483.533L0.999993 527.4M0.999995 483.533L0.999997 439.666M44.9545 483.533L88.9091 483.533M44.9545 483.533L44.9545 527.4M44.9545 483.533L44.9545 439.666M88.9091 483.533L132.864 483.533M88.9091 483.533L88.9091 527.4M88.9091 483.533L88.9091 439.666M132.864 483.533L176.818 483.533M132.864 483.533L132.864 527.4M132.864 483.533L132.864 439.666M176.818 483.533L220.773 483.533M176.818 483.533L176.818 527.4M176.818 483.533L176.818 439.666M220.773 483.533L264.727 483.533M220.773 483.533L220.773 527.4M220.773 483.533L220.773 439.666M264.727 483.533L308.682 483.533M264.727 483.533L264.727 527.4M264.727 483.533L264.727 439.666M308.682 483.533L352.636 483.533M308.682 483.533L308.682 527.4M308.682 483.533L308.682 439.666M352.636 483.533L352.636 527.4M352.636 483.533L352.636 439.666M440.545 483.533L440.545 527.4M440.545 483.533L440.545 439.667M0.999991 571.266L44.9545 571.266M0.999991 571.266L0.999989 615.133M0.999991 571.266L0.999993 527.4M44.9545 571.266L88.9091 571.266M44.9545 571.266L44.9545 615.133M44.9545 571.266L44.9545 527.4M88.9091 571.266L132.864 571.266M88.9091 571.266L88.909 615.133M88.9091 571.266L88.9091 527.4M132.864 571.266L176.818 571.266M132.864 571.266L132.864 615.133M132.864 571.266L132.864 527.4M176.818 571.266L220.773 571.267M176.818 571.266L176.818 615.133M176.818 571.266L176.818 527.4M220.773 571.267L264.727 571.267M220.773 571.267L220.773 615.133M220.773 571.267L220.773 527.4M264.727 571.267L308.682 571.267M264.727 571.267L264.727 615.133M264.727 571.267L264.727 527.4M308.682 571.267L352.636 571.267M308.682 571.267L308.682 615.133M308.682 571.267L308.682 527.4M352.636 571.267L352.636 615.133M352.636 571.267L352.636 527.4M440.545 571.267L440.545 615.133M440.545 571.267L440.545 527.4M0.999993 527.4L44.9545 527.4M44.9545 527.4L88.9091 527.4M88.9091 527.4L132.864 527.4M132.864 527.4L176.818 527.4M176.818 527.4L220.773 527.4M220.773 527.4L264.727 527.4M264.727 527.4L308.682 527.4M308.682 527.4L352.636 527.4M0.999989 615.133L44.9545 615.133M0.999989 615.133L0.999987 659L44.9545 659M44.9545 615.133L88.909 615.133M44.9545 615.133L44.9545 659M88.909 615.133L132.864 615.133M88.909 615.133L88.909 659M132.864 615.133L176.818 615.133M132.864 615.133L132.864 659M176.818 615.133L220.773 615.133M176.818 615.133L176.818 659M220.773 615.133L264.727 615.133M220.773 615.133L220.773 659M264.727 615.133L308.682 615.133M264.727 615.133L264.727 659M308.682 615.133L352.636 615.133M308.682 615.133L308.682 659M352.636 615.133L352.636 659M440.545 615.133L440.545 659M308.682 659L264.727 659M308.682 659L352.636 659M308.682 439.666L264.727 439.666M308.682 439.666L352.636 439.666M308.682 351.933L308.682 308.067M308.682 351.933L264.727 351.933M308.682 351.933L352.636 351.933M308.682 308.067L308.682 264.2M308.682 308.067L264.727 308.067M308.682 308.067L352.636 308.067M308.682 264.2L308.682 220.334M308.682 264.2L264.727 264.2M308.682 264.2L352.636 264.2M308.682 220.334L308.682 176.467M308.682 220.334L264.727 220.334M308.682 220.334L352.636 220.334M308.682 176.467L308.682 132.6M308.682 176.467L264.727 176.467M308.682 176.467L352.636 176.467M308.682 132.6L308.682 88.7334M308.682 132.6L264.727 132.6M308.682 132.6L352.636 132.6M308.682 88.7334L308.682 44.8669M308.682 88.7334L264.727 88.7334M308.682 88.7334L352.636 88.7334M308.682 44.8669L308.682 1.00002M308.682 44.8669L264.727 44.8669M308.682 44.8669L352.636 44.8669M308.682 1.00002L264.727 1.00002M308.682 1.00002L352.636 1.00003M1 308.066L44.9545 308.066M1 308.066L1 351.933M1 308.066L1 264.2M44.9545 308.066L88.9091 308.066M44.9545 308.066L44.9545 351.933M44.9545 308.066L44.9545 264.2M88.9091 308.066L132.864 308.067M88.9091 308.066L88.9091 351.933M88.9091 308.066L88.9091 264.2M132.864 308.067L176.818 308.067M132.864 308.067L132.864 351.933M132.864 308.067L132.864 264.2M176.818 308.067L220.773 308.067M176.818 308.067L176.818 351.933M176.818 308.067L176.818 264.2M220.773 308.067L264.727 308.067M220.773 308.067L220.773 351.933M220.773 308.067L220.773 264.2M264.727 308.067L264.727 351.933M264.727 308.067L264.727 264.2M352.636 308.067L352.636 351.933M352.636 308.067L352.636 264.2M440.546 308.067L440.546 351.933M440.546 308.067L440.546 264.2M220.773 659L176.818 659M220.773 659L264.727 659M220.773 439.666L176.818 439.666M220.773 439.666L264.727 439.666M220.773 351.933L176.818 351.933M220.773 351.933L264.727 351.933M220.773 264.2L220.773 220.333M220.773 264.2L176.818 264.2M220.773 264.2L264.727 264.2M220.773 220.333L220.773 176.467M220.773 220.333L176.818 220.333M220.773 220.333L264.727 220.334M220.773 176.467L220.773 132.6M220.773 176.467L176.818 176.467M220.773 176.467L264.727 176.467M220.773 132.6L220.773 88.7334M220.773 132.6L176.818 132.6M220.773 132.6L264.727 132.6M220.773 88.7334L220.773 44.8668M220.773 88.7334L176.818 88.7334M220.773 88.7334L264.727 88.7334M220.773 44.8668L220.773 1.00002M220.773 44.8668L176.818 44.8668M220.773 44.8668L264.727 44.8669M220.773 1.00002L176.818 1.00001M220.773 1.00002L264.727 1.00002M1.00001 220.333L44.9545 220.333M1.00001 220.333L1 264.2M1.00001 220.333L1.00001 176.467M44.9545 220.333L88.9091 220.333M44.9545 220.333L44.9545 264.2M44.9545 220.333L44.9545 176.467M88.9091 220.333L132.864 220.333M88.9091 220.333L88.9091 264.2M88.9091 220.333L88.9091 176.467M132.864 220.333L176.818 220.333M132.864 220.333L132.864 264.2M132.864 220.333L132.864 176.467M176.818 220.333L176.818 264.2M176.818 220.333L176.818 176.467M264.727 220.334L264.727 264.2M264.727 220.334L264.727 176.467M352.636 220.334L352.636 264.2M352.636 220.334L352.636 176.467M440.546 220.334L440.546 264.2M440.546 220.334L440.546 176.467M132.864 659L88.909 659M132.864 659L176.818 659M132.864 439.666L88.9091 439.666M132.864 439.666L176.818 439.666M132.864 351.933L88.9091 351.933M132.864 351.933L176.818 351.933M132.864 264.2L88.9091 264.2M132.864 264.2L176.818 264.2M132.864 176.467L132.864 132.6M132.864 176.467L88.9091 176.467M132.864 176.467L176.818 176.467M132.864 132.6L132.864 88.7334M132.864 132.6L88.9091 132.6M132.864 132.6L176.818 132.6M132.864 88.7334L132.864 44.8668M132.864 88.7334L88.9091 88.7334M132.864 88.7334L176.818 88.7334M132.864 44.8668L132.864 1.00001M132.864 44.8668L88.9091 44.8668M132.864 44.8668L176.818 44.8668M132.864 1.00001L88.9092 1M132.864 1.00001L176.818 1.00001M1.00001 132.6L44.9545 132.6M1.00001 132.6L1.00001 176.467M1.00001 132.6L1.00001 88.7334M44.9545 132.6L88.9091 132.6M44.9545 132.6L44.9545 176.467M44.9545 132.6L44.9545 88.7334M88.9091 132.6L88.9091 176.467M88.9091 132.6L88.9091 88.7334M176.818 132.6L176.818 176.467M176.818 132.6L176.818 88.7334M264.727 132.6L264.727 176.467M264.727 132.6L264.727 88.7334M352.636 132.6L352.636 176.467M352.636 132.6L352.636 88.7334M440.546 132.6L440.546 176.467M440.546 132.6L440.546 88.7335M44.9545 659L88.909 659M44.9545 439.666L0.999997 439.666M44.9545 439.666L88.9091 439.666M44.9545 351.933L1 351.933M44.9545 351.933L88.9091 351.933M44.9545 264.2L1 264.2M44.9545 264.2L88.9091 264.2M44.9545 176.467L1.00001 176.467M44.9545 176.467L88.9091 176.467M44.9545 88.7334L44.9545 44.8668M44.9545 88.7334L1.00001 88.7334M44.9545 88.7334L88.9091 88.7334M44.9545 44.8668L44.9546 1M44.9545 44.8668L1.00001 44.8668M44.9545 44.8668L88.9091 44.8668M44.9546 1L1.00002 0.999958L1.00001 44.8668M44.9546 1L88.9092 1M1.00001 44.8668L1.00001 88.7334M88.9091 44.8668L88.9091 88.7334M88.9091 44.8668L88.9092 1M176.818 44.8668L176.818 88.7334M176.818 44.8668L176.818 1.00001M264.727 44.8669L264.727 88.7334M264.727 44.8669L264.727 1.00002M352.636 44.8669L352.636 88.7334M352.636 44.8669L352.636 1.00003M440.546 44.8669L440.546 88.7335M440.546 44.8669L440.546 1.00004" stroke="#1B1D20"/>
</svg>