<svg width="19" height="19" viewBox="0 0 19 19" fill="none" xmlns="http://www.w3.org/2000/svg">
<path fill-rule="evenodd" clip-rule="evenodd" d="M14.4154 5.00311C14.6516 4.76693 14.6516 4.384 14.4154 4.14781C14.1793 3.91163 13.7963 3.91163 13.5601 4.14781L9.05935 8.6486L4.55856 4.14781C4.32238 3.91163 3.93945 3.91163 3.70326 4.14781C3.46708 4.384 3.46708 4.76693 3.70326 5.00311L8.20405 9.5039L3.70326 14.0047C3.46708 14.2409 3.46708 14.6238 3.70326 14.86C3.93945 15.0962 4.32238 15.0962 4.55856 14.86L9.05935 10.3592L13.5601 14.86C13.7963 15.0962 14.1793 15.0962 14.4154 14.86C14.6516 14.6238 14.6516 14.2409 14.4154 14.0047L9.91465 9.5039L14.4154 5.00311Z" fill="#F87171"/>
</svg>
