<svg width="16" height="16" viewBox="0 0 16 16" fill="none" xmlns="http://www.w3.org/2000/svg">
<g clip-path="url(#clip0_14170_5899)">
<path d="M3.33301 4.66667H12.6663M6.66634 6.66667V12M9.33301 6.66667V12M6.66634 2H9.33301C9.50982 2 9.67939 2.07024 9.80441 2.19526C9.92944 2.32029 9.99967 2.48986 9.99967 2.66667V4.66667H5.99967V2.66667C5.99967 2.48986 6.06991 2.32029 6.19494 2.19526C6.31996 2.07024 6.48953 2 6.66634 2ZM3.99967 4.66667H11.9997V13.3333C11.9997 13.5101 11.9294 13.6797 11.8044 13.8047C11.6794 13.9298 11.5098 14 11.333 14H4.66634C4.48953 14 4.31996 13.9298 4.19494 13.8047C4.06991 13.6797 3.99967 13.5101 3.99967 13.3333V4.66667Z" stroke="#E97C7C" stroke-linecap="round" stroke-linejoin="round"/>
</g>
<defs>
<clipPath id="clip0_14170_5899">
<rect width="16" height="16" fill="white"/>
</clipPath>
</defs>
</svg>
