<svg width="24" height="25" viewBox="0 0 24 25" fill="none" xmlns="http://www.w3.org/2000/svg">
<path d="M6 2.32812H18V4.32812H6V2.32812ZM4 6.32812V4.32812H6V6.32812H4ZM4 18.3281V6.32812H2V18.3281H4ZM6 20.3281V18.3281H4V20.3281H6ZM18 20.3281V22.3281H6V20.3281H18ZM20 18.3281V20.3281H18V18.3281H20ZM20 6.32812H22V18.3281H20V6.32812ZM20 6.32812V4.32812H18V6.32812H20ZM11 5.32812H13V7.32812H16V9.32812H10V11.3281H16V17.3281H13V19.3281H11V17.3281H8V15.3281H14V13.3281H8V7.32812H11V5.32812Z" fill="#8B8B8B"/>
</svg>
