<svg width="14" height="14" viewBox="0 0 14 14" fill="none" xmlns="http://www.w3.org/2000/svg">
<path d="M8.16536 1.16406V3.4974C8.16536 3.80681 8.28828 4.10356 8.50707 4.32235C8.72587 4.54115 9.02261 4.66406 9.33203 4.66406H11.6654M5.83203 5.2474H4.66536M9.33203 7.58073H4.66536M9.33203 9.91406H4.66536M8.7487 1.16406H3.4987C3.18928 1.16406 2.89253 1.28698 2.67374 1.50577C2.45495 1.72456 2.33203 2.02131 2.33203 2.33073V11.6641C2.33203 11.9735 2.45495 12.2702 2.67374 12.489C2.89253 12.7078 3.18928 12.8307 3.4987 12.8307H10.4987C10.8081 12.8307 11.1049 12.7078 11.3237 12.489C11.5424 12.2702 11.6654 11.9735 11.6654 11.6641V4.08073L8.7487 1.16406Z" stroke="#46494A" stroke-linecap="round" stroke-linejoin="round"/>
</svg>
