<svg width="14" height="14" viewBox="0 0 14 14" fill="none" xmlns="http://www.w3.org/2000/svg">
<g clip-path="url(#clip0_14170_10505)">
<path d="M6.41699 6.91699H6.91699V6.41699V3.50033C6.91699 3.47822 6.92577 3.45703 6.9414 3.4414C6.95703 3.42577 6.97822 3.41699 7.00033 3.41699C7.02243 3.41699 7.04362 3.42577 7.05925 3.4414C7.07488 3.45703 7.08366 3.47822 7.08366 3.50033V6.41699V6.91699H7.58366H10.5003C10.5224 6.91699 10.5436 6.92577 10.5593 6.9414C10.5749 6.95703 10.5837 6.97822 10.5837 7.00033C10.5837 7.02243 10.5749 7.04362 10.5593 7.05925C10.5436 7.07488 10.5224 7.08366 10.5003 7.08366H7.58366H7.08366V7.58366V10.5003C7.08366 10.5224 7.07488 10.5436 7.05925 10.5593C7.04362 10.5749 7.02243 10.5837 7.00033 10.5837C6.97822 10.5837 6.95703 10.5749 6.9414 10.5593C6.92577 10.5436 6.91699 10.5224 6.91699 10.5003V7.58366V7.08366H6.41699H3.50033C3.47822 7.08366 3.45703 7.07488 3.4414 7.05925C3.42577 7.04362 3.41699 7.02243 3.41699 7.00033C3.41699 6.97822 3.42577 6.95703 3.4414 6.9414C3.45703 6.92577 3.47822 6.91699 3.50033 6.91699H6.41699Z" fill="#F0EFF0" stroke="#66E3FF"/>
</g>
<defs>
<clipPath id="clip0_14170_10505">
<rect width="14" height="14" fill="white"/>
</clipPath>
</defs>
</svg>
