<svg width="32" height="32" viewBox="0 0 32 32" fill="none" xmlns="http://www.w3.org/2000/svg">
<path d="M0 4C0 1.79086 1.79086 0 4 0H28C30.2091 0 32 1.79086 32 4V28C32 30.2091 30.2091 32 28 32H4C1.79086 32 0 30.2091 0 28V4Z" fill="#012229"/>
<path d="M24.8013 17.1682C24.8013 19.5729 23.8461 21.879 22.1457 23.5793C20.4454 25.2797 18.1393 26.2349 15.7346 26.2349C13.33 26.2349 11.0239 25.2797 9.32353 23.5793C7.6232 21.879 6.66797 19.5729 6.66797 17.1682C6.66797 14.7636 7.6232 12.4575 9.32353 10.7571C11.0239 9.0568 13.33 8.10156 15.7346 8.10156C18.1393 8.10156 20.4454 9.0568 22.1457 10.7571C23.8461 12.4575 24.8013 14.7636 24.8013 17.1682Z" stroke="#57C8E0" stroke-width="1.5" stroke-linecap="round" stroke-linejoin="round"/>
<path d="M15.7339 23.0318C14.1779 23.0318 12.6857 22.4137 11.5855 21.3135C10.4853 20.2133 9.86719 18.721 9.86719 17.1651C9.86719 15.6092 10.4853 14.117 11.5855 13.0167C12.6857 11.9165 14.1779 11.2984 15.7339 11.2984M15.7339 17.1651L18.9339 12.3651M17.3339 6.49844C17.3339 6.07409 17.1653 5.66712 16.8652 5.36707C16.5652 5.06701 16.1582 4.89844 15.7339 4.89844C15.3095 4.89844 14.9025 5.06701 14.6025 5.36707C14.3024 5.66712 14.1339 6.07409 14.1339 6.49844C14.1339 6.92278 14.3024 7.32975 14.6025 7.62981C14.9025 7.92987 15.3095 8.09844 15.7339 8.09844C16.1582 8.09844 16.5652 7.92987 16.8652 7.62981C17.1653 7.32975 17.3339 6.92278 17.3339 6.49844Z" stroke="#57C8E0" stroke-width="1.5" stroke-linecap="round" stroke-linejoin="round"/>
</svg>
