<svg width="40" height="19" viewBox="0 0 40 19" fill="none" xmlns="http://www.w3.org/2000/svg">
<path fill-rule="evenodd" clip-rule="evenodd" d="M0.605957 9.06706C0.605957 4.05945 4.52705 0 9.36391 0C10.7616 0 12.4834 0.619193 14.0478 1.31022C15.6873 2.03437 17.4432 2.97354 19.0038 3.84747C19.5469 4.1516 20.2 4.1516 20.7431 3.84747C22.3038 2.97354 24.0597 2.03437 25.6991 1.31022C27.2635 0.619193 28.9854 0 30.383 0C35.2199 0 39.141 4.05945 39.141 9.06706C39.141 14.0747 35.2199 18.1341 30.383 18.1341C28.9854 18.1341 27.2635 17.5149 25.6991 16.8239C24.0597 16.0997 22.3038 15.1606 20.7431 14.2866C20.2 13.9825 19.5469 13.9825 19.0038 14.2866C17.4432 15.1606 15.6873 16.0997 14.0478 16.8239C12.4834 17.5149 10.7616 18.1341 9.36391 18.1341C4.52705 18.1341 0.605957 14.0747 0.605957 9.06706ZM9.36391 3.62682C6.46179 3.62682 4.10914 6.0625 4.10914 9.06706C4.10914 12.0716 6.46179 14.5073 9.36391 14.5073C9.97608 14.5073 11.1103 14.1783 12.6731 13.488C14.1609 12.8308 15.8034 11.9554 17.3372 11.0966C18.9202 10.2101 20.8267 10.2101 22.4097 11.0966C23.9435 11.9554 25.586 12.8308 27.0738 13.488C28.6367 14.1783 29.7708 14.5073 30.383 14.5073C33.2851 14.5073 35.6378 12.0716 35.6378 9.06706C35.6378 6.0625 33.2851 3.62682 30.383 3.62682C29.7708 3.62682 28.6367 3.95578 27.0738 4.6461C25.586 5.3033 23.9435 6.17867 22.4097 7.03755C20.8267 7.92401 18.9202 7.92401 17.3372 7.03755C15.8034 6.17867 14.1609 5.3033 12.6731 4.6461C11.1103 3.95578 9.97608 3.62682 9.36391 3.62682Z" fill="#EDEFF7"/>
</svg>
