<svg width="18" height="19" viewBox="0 0 18 19" fill="none" xmlns="http://www.w3.org/2000/svg">
<mask id="mask0_12549_296" style="mask-type:alpha" maskUnits="userSpaceOnUse" x="0" y="0" width="18" height="19">
<rect y="0.5" width="18" height="18" fill="#D9D9D9"/>
</mask>
<g mask="url(#mask0_12549_296)">
<path d="M3.40679 15.875C2.40393 15.875 1.78716 14.7779 2.30831 13.9211L8.00471 4.55595C8.50556 3.73253 9.70081 3.73253 10.2017 4.55595L15.8981 13.9211C16.4192 14.7779 15.8024 15.875 14.7996 15.875H3.40679Z" fill="#BD841A"/>
<path d="M9.55668 13.6815C9.43471 13.7976 9.2836 13.8557 9.10333 13.8557C8.92307 13.8557 8.77196 13.7976 8.64999 13.6815C8.52803 13.5654 8.46704 13.4215 8.46704 13.2499C8.46704 13.0782 8.52803 12.9344 8.64999 12.8182C8.77196 12.7021 8.92307 12.644 9.10333 12.644C9.2836 12.644 9.43471 12.7021 9.55668 12.8182C9.67864 12.9344 9.73963 13.0782 9.73963 13.2499C9.73963 13.4215 9.67864 13.5654 9.55668 13.6815Z" fill="#1F2937"/>
<path d="M9.69414 8.73484V11.3032C9.69414 11.6295 9.42962 11.894 9.10333 11.894C8.77704 11.894 8.51253 11.6295 8.51253 11.3032V8.73484C8.51253 8.40855 8.77704 8.14404 9.10333 8.14404C9.42962 8.14404 9.69414 8.40855 9.69414 8.73484Z" fill="#1F2937"/>
</g>
</svg>
