<svg width="20" height="20" viewBox="0 0 20 20" fill="none" xmlns="http://www.w3.org/2000/svg">
<g id="logout">
<mask id="mask0_9444_212861" style="mask-type:alpha" maskUnits="userSpaceOnUse" x="0" y="0" width="20" height="20">
<rect id="Bounding box" width="20" height="20" fill="#D9D9D9"/>
</mask>
<g mask="url(#mask0_9444_212861)">
<path id="logout_2" d="M4.42247 17.0846C4.0015 17.0846 3.64518 16.9388 3.35352 16.6471C3.06185 16.3555 2.91602 15.9991 2.91602 15.5782V4.42443C2.91602 4.00345 3.06185 3.64714 3.35352 3.35547C3.64518 3.0638 4.0015 2.91797 4.42247 2.91797H10.0073V4.16797H4.42247C4.35831 4.16797 4.29956 4.1947 4.24622 4.24818C4.19275 4.30151 4.16602 4.36026 4.16602 4.42443V15.5782C4.16602 15.6423 4.19275 15.7011 4.24622 15.7544C4.29956 15.8079 4.35831 15.8346 4.42247 15.8346H10.0073V17.0846H4.42247ZM13.525 13.559L12.6596 12.6551L14.6885 10.6263H7.57956V9.3763H14.6885L12.6596 7.34755L13.525 6.44359L17.0827 10.0013L13.525 13.559Z" fill="#069A69"/>
</g>
</g>
</svg>
