<svg width="17" height="16" viewBox="0 0 17 16" fill="none" xmlns="http://www.w3.org/2000/svg">
<path d="M7.36001 2.57347L1.71335 12.0001C1.59693 12.2018 1.53533 12.4303 1.53467 12.6631C1.53402 12.896 1.59434 13.1249 1.70963 13.3272C1.82492 13.5294 1.99116 13.698 2.19182 13.816C2.39247 13.9341 2.62055 13.9976 2.85335 14.0001H14.1467C14.3795 13.9976 14.6076 13.9341 14.8082 13.816C15.0089 13.698 15.1751 13.5294 15.2904 13.3272C15.4057 13.1249 15.466 12.896 15.4654 12.6631C15.4647 12.4303 15.4031 12.2018 15.2867 12.0001L9.64001 2.57347C9.52117 2.37754 9.35383 2.21555 9.15414 2.10313C8.95446 1.9907 8.72917 1.93164 8.50001 1.93164C8.27086 1.93164 8.04557 1.9907 7.84588 2.10313C7.6462 2.21555 7.47886 2.37754 7.36001 2.57347Z" stroke="#F20B0B" stroke-linecap="round" stroke-linejoin="round"/>
<path d="M8.5 6V8.66667" stroke="#F20B0B" stroke-linecap="round" stroke-linejoin="round"/>
<path d="M8.5 11.333H8.50667" stroke="#F20B0B" stroke-linecap="round" stroke-linejoin="round"/>
</svg>
