<svg width="21" height="21" viewBox="0 0 21 21" fill="none" xmlns="http://www.w3.org/2000/svg">
    <circle cx="10.4346" cy="10.5" r="9.60729" fill="#EF4444" stroke="#EF4444" stroke-width="0.785414"/>
    <path fill-rule="evenodd" clip-rule="evenodd" d="M6.47818 6.29967C6.34567 6.17477 6.13249 6.17637 6.00203 6.30324C5.87158 6.43012 5.87325 6.63423 6.00576 6.75913L10.0057 10.5293L6.00389 14.3607C5.8724 14.4866 5.8724 14.6907 6.00389 14.8166C6.13538 14.9425 6.34857 14.9425 6.48006 14.8166L10.4855 10.9816L14.4233 14.6931C14.5558 14.818 14.769 14.8164 14.8994 14.6896C15.0299 14.5627 15.0282 14.3586 14.8957 14.2337L10.9617 10.5257L14.8976 6.75735C15.0291 6.63146 15.0291 6.42734 14.8976 6.30145C14.7661 6.17556 14.5529 6.17556 14.4214 6.30145L10.4818 10.0733L6.47818 6.29967Z" fill="#FECACA"/>
    <path d="M6.00203 6.30324L5.91109 6.20974L6.00203 6.30324ZM6.47818 6.29967L6.38872 6.39459L6.47818 6.29967ZM6.00576 6.75913L6.09523 6.66421H6.09523L6.00576 6.75913ZM10.0057 10.5293L10.0959 10.6235C10.1217 10.5988 10.1362 10.5645 10.1361 10.5288C10.1359 10.493 10.1211 10.4589 10.0951 10.4343L10.0057 10.5293ZM6.00389 14.3607L5.91369 14.2665H5.91369L6.00389 14.3607ZM6.00389 14.8166L5.91369 14.9108H5.91369L6.00389 14.8166ZM6.48006 14.8166L6.57026 14.9108H6.57026L6.48006 14.8166ZM10.4855 10.9816L10.575 10.8867C10.5245 10.839 10.4455 10.8394 10.3953 10.8874L10.4855 10.9816ZM14.4233 14.6931L14.5127 14.5982L14.4233 14.6931ZM14.8957 14.2337L14.8062 14.3286L14.8957 14.2337ZM10.9617 10.5257L10.8715 10.4315C10.8457 10.4562 10.8312 10.4904 10.8313 10.5262C10.8314 10.5619 10.8462 10.5961 10.8723 10.6206L10.9617 10.5257ZM14.8976 6.75735L14.8074 6.66314V6.66314L14.8976 6.75735ZM14.8976 6.30145L14.8074 6.39567L14.8074 6.39567L14.8976 6.30145ZM14.4214 6.30145L14.3312 6.20724V6.20724L14.4214 6.30145ZM10.4818 10.0733L10.3924 10.1683C10.4429 10.2159 10.5219 10.2156 10.572 10.1676L10.4818 10.0733ZM6.09297 6.39675C6.17331 6.31862 6.30696 6.31753 6.38872 6.39459L6.56765 6.20476C6.38437 6.03201 6.09167 6.03412 5.91109 6.20974L6.09297 6.39675ZM6.09523 6.66421C6.01669 6.59018 6.01582 6.47179 6.09297 6.39675L5.91109 6.20974C5.72734 6.38845 5.72981 6.67827 5.9163 6.85405L6.09523 6.66421ZM10.0951 10.4343L6.09523 6.66421L5.9163 6.85405L9.91619 10.6242L10.0951 10.4343ZM6.0941 14.4549L10.0959 10.6235L9.91545 10.435L5.91369 14.2665L6.0941 14.4549ZM6.0941 14.7224C6.01625 14.6479 6.01625 14.5295 6.0941 14.4549L5.91369 14.2665C5.72856 14.4438 5.72856 14.7336 5.91369 14.9108L6.0941 14.7224ZM6.38985 14.7224C6.3088 14.8 6.17514 14.8 6.0941 14.7224L5.91369 14.9108C6.09562 15.085 6.38833 15.085 6.57026 14.9108L6.38985 14.7224ZM10.3953 10.8874L6.38985 14.7224L6.57026 14.9108L10.5758 11.0758L10.3953 10.8874ZM14.5127 14.5982L10.575 10.8867L10.3961 11.0765L14.3338 14.788L14.5127 14.5982ZM14.8085 14.596C14.7281 14.6742 14.5945 14.6753 14.5127 14.5982L14.3338 14.788C14.5171 14.9608 14.8098 14.9587 14.9904 14.7831L14.8085 14.596ZM14.8062 14.3286C14.8848 14.4026 14.8856 14.521 14.8085 14.596L14.9904 14.7831C15.1741 14.6043 15.1716 14.3145 14.9852 14.1387L14.8062 14.3286ZM10.8723 10.6206L14.8062 14.3286L14.9852 14.1387L11.0512 10.4308L10.8723 10.6206ZM14.8074 6.66314L10.8715 10.4315L11.0519 10.6199L14.9878 6.85157L14.8074 6.66314ZM14.8074 6.39567C14.8852 6.4702 14.8852 6.5886 14.8074 6.66314L14.9878 6.85157C15.1729 6.67432 15.1729 6.38449 14.9878 6.20724L14.8074 6.39567ZM14.5116 6.39567C14.5927 6.31807 14.7263 6.31807 14.8074 6.39567L14.9878 6.20724C14.8058 6.03305 14.5131 6.03305 14.3312 6.20724L14.5116 6.39567ZM10.572 10.1676L14.5116 6.39567L14.3312 6.20724L10.3916 9.97913L10.572 10.1676ZM6.38872 6.39459L10.3924 10.1683L10.5713 9.97843L6.56765 6.20476L6.38872 6.39459Z" fill="#FECACA"/>
</svg>
