<svg width="12" height="12" viewBox="0 0 12 12" fill="none" xmlns="http://www.w3.org/2000/svg">
<path d="M11.5 1.5V5.25C11.5 5.3163 11.4737 5.37989 11.4268 5.42678C11.3799 5.47366 11.3163 5.5 11.25 5.5H6.5V0.75C6.5 0.683696 6.52634 0.620107 6.57322 0.573223C6.62011 0.526339 6.6837 0.5 6.75 0.5H10.5C10.7652 0.5 11.0196 0.605357 11.2071 0.792893C11.3946 0.98043 11.5 1.23478 11.5 1.5ZM5.25 0.5H1.5C1.23478 0.5 0.98043 0.605357 0.792893 0.792893C0.605357 0.98043 0.5 1.23478 0.5 1.5V5.25C0.5 5.3163 0.526339 5.37989 0.573223 5.42678C0.620107 5.47366 0.683696 5.5 0.75 5.5H5.5V0.75C5.5 0.683696 5.47366 0.620107 5.42678 0.573223C5.37989 0.526339 5.3163 0.5 5.25 0.5ZM11.25 6.5H6.5V11.25C6.5 11.3163 6.52634 11.3799 6.57322 11.4268C6.62011 11.4737 6.6837 11.5 6.75 11.5H10.5C10.7652 11.5 11.0196 11.3946 11.2071 11.2071C11.3946 11.0196 11.5 10.7652 11.5 10.5V6.75C11.5 6.6837 11.4737 6.62011 11.4268 6.57322C11.3799 6.52634 11.3163 6.5 11.25 6.5ZM0.5 6.75V10.5C0.5 10.7652 0.605357 11.0196 0.792893 11.2071C0.98043 11.3946 1.23478 11.5 1.5 11.5H5.25C5.3163 11.5 5.37989 11.4737 5.42678 11.4268C5.47366 11.3799 5.5 11.3163 5.5 11.25V6.5H0.75C0.683696 6.5 0.620107 6.52634 0.573223 6.57322C0.526339 6.62011 0.5 6.6837 0.5 6.75Z" fill="#6E7180"/>
</svg>
