<svg width="43" height="30" viewBox="0 0 43 30" fill="none" xmlns="http://www.w3.org/2000/svg">
    <g clip-path="url(#clip0_7468_7359)">
        <path d="M23.626 7.23682L29.0606 12.6714" stroke="#06E097" stroke-width="2" stroke-linecap="round"/>
        <path d="M13.5361 17.3296L18.9707 22.7642" stroke="#06E097" stroke-width="2" stroke-linecap="round"/>
        <path d="M18.9707 7.23682L13.5361 12.6714" stroke="#06E097" stroke-width="2" stroke-linecap="round"/>
        <path d="M29.0606 17.3296L23.626 22.7642" stroke="#06E097" stroke-width="2" stroke-linecap="round"/>
        <path d="M21.2959 8.01319C23.011 8.01319 24.4014 6.62282 24.4014 4.90772C24.4014 3.19261 23.011 1.80225 21.2959 1.80225C19.5808 1.80225 18.1904 3.19261 18.1904 4.90772C18.1904 6.62282 19.5808 8.01319 21.2959 8.01319Z" stroke="#06E097" stroke-width="2"/>
        <path d="M21.2959 28.199C23.011 28.199 24.4014 26.8086 24.4014 25.0935C24.4014 23.3784 23.011 21.988 21.2959 21.988C19.5808 21.988 18.1904 23.3784 18.1904 25.0935C18.1904 26.8086 19.5808 28.199 21.2959 28.199Z" stroke="#06E097" stroke-width="2"/>
        <path d="M11.207 18.1057C12.9221 18.1057 14.3125 16.7154 14.3125 15.0002C14.3125 13.2851 12.9221 11.8948 11.207 11.8948C9.49193 11.8948 8.10156 13.2851 8.10156 15.0002C8.10156 16.7154 9.49193 18.1057 11.207 18.1057Z" stroke="#06E097" stroke-width="2"/>
        <path d="M31.3926 18.1057C33.1077 18.1057 34.4981 16.7154 34.4981 15.0002C34.4981 13.2851 33.1077 11.8948 31.3926 11.8948C29.6775 11.8948 28.2871 13.2851 28.2871 15.0002C28.2871 16.7154 29.6775 18.1057 31.3926 18.1057Z" stroke="#06E097" stroke-width="2"/>
        <path d="M21.5 11.001L23.232 12.0011L24.9641 13.001L24.964 15.001L24.9641 17.001L23.232 18.0009L21.5 19.001L19.768 18.0009L18.0359 17.001L18.036 15.001L18.0359 13.001L19.768 12.0011L21.5 11.001Z" fill="#06E097"/>
    </g>
    <defs>
        <clipPath id="clip0_7468_7359">
            <rect width="41.6" height="28.8" fill="white" transform="translate(0.5 0.600586)"/>
        </clipPath>
    </defs>
</svg>
