<svg width="16" height="17" viewBox="0 0 16 17" fill="none" xmlns="http://www.w3.org/2000/svg">
<mask id="mask0_7843_203047" style="mask-type:alpha" maskUnits="userSpaceOnUse" x="0" y="0" width="16" height="17">
<rect y="0.5" width="16" height="16" fill="#D9D9D9"/>
</mask>
<g mask="url(#mask0_7843_203047)">
<path d="M7.99991 9.41528C7.91358 9.41528 7.83157 9.40473 7.75391 9.38361C7.67635 9.3625 7.5978 9.33217 7.51824 9.29261L1.88324 6.31778C1.78757 6.26278 1.7188 6.19595 1.67691 6.11728C1.63502 6.03873 1.61407 5.95156 1.61407 5.85578C1.61407 5.76289 1.63502 5.67717 1.67691 5.59861C1.7188 5.51995 1.78757 5.45311 1.88324 5.39811L7.51824 2.42328C7.5978 2.38373 7.67635 2.35339 7.75391 2.33228C7.83157 2.31128 7.91358 2.30078 7.99991 2.30078C8.08624 2.30078 8.16824 2.31128 8.24591 2.33228C8.32346 2.35339 8.40202 2.38373 8.48158 2.42328L14.1229 5.39811C14.2187 5.45311 14.2886 5.51995 14.3327 5.59861C14.377 5.67717 14.3991 5.76289 14.3991 5.85578C14.3991 5.95156 14.377 6.03873 14.3327 6.11728C14.2886 6.19595 14.2187 6.26278 14.1229 6.31778L8.48158 9.29261C8.40202 9.33217 8.32346 9.3625 8.24591 9.38361C8.16824 9.40473 8.08624 9.41528 7.99991 9.41528ZM7.99991 8.58995L13.2581 5.85578L7.99991 3.12595L2.75924 5.85578L7.99991 8.58995ZM7.99991 11.2379L13.5409 8.33228C13.5675 8.31973 13.6439 8.31078 13.7701 8.30545C13.8749 8.314 13.9634 8.35573 14.0356 8.43061C14.1078 8.5055 14.1439 8.59911 14.1439 8.71145C14.1439 8.78723 14.1266 8.85517 14.0921 8.91528C14.0574 8.97539 14.0022 9.02795 13.9264 9.07295L8.48158 11.9336C8.40202 11.9761 8.32346 12.0071 8.24591 12.0268C8.16824 12.0464 8.08624 12.0563 7.99991 12.0563C7.91358 12.0563 7.83157 12.0464 7.75391 12.0268C7.67635 12.0071 7.5978 11.9761 7.51824 11.9336L2.09091 9.07295C2.01513 9.02795 1.95819 8.97539 1.92007 8.91528C1.88185 8.85517 1.86274 8.78723 1.86274 8.71145C1.86274 8.59911 1.89991 8.5055 1.97424 8.43061C2.04857 8.35573 2.13819 8.314 2.24307 8.30545C2.28552 8.29689 2.32552 8.2955 2.36307 8.30128C2.40074 8.30717 2.43852 8.32123 2.47641 8.34345L7.99991 11.2379ZM7.99991 13.8831L13.5409 10.9776C13.5675 10.9623 13.6439 10.9519 13.7701 10.9464C13.8749 10.9578 13.9634 11.0009 14.0356 11.0759C14.1078 11.1508 14.1439 11.243 14.1439 11.3524C14.1439 11.4282 14.1266 11.4969 14.0921 11.5584C14.0574 11.6199 14.0022 11.6731 13.9264 11.7181L8.48158 14.5789C8.40202 14.6214 8.32346 14.6524 8.24591 14.6721C8.16824 14.6917 8.08624 14.7014 7.99991 14.7014C7.91358 14.7014 7.83157 14.6917 7.75391 14.6721C7.67635 14.6524 7.5978 14.6214 7.51824 14.5789L2.09091 11.7181C2.01513 11.6731 1.95819 11.6199 1.92007 11.5584C1.88185 11.4969 1.86274 11.4282 1.86274 11.3524C1.86274 11.243 1.89991 11.1508 1.97424 11.0759C2.04857 11.0009 2.13819 10.9578 2.24307 10.9464C2.28552 10.9408 2.32552 10.9408 2.36307 10.9466C2.40074 10.9525 2.43852 10.9651 2.47641 10.9844L7.99991 13.8831Z" fill="#06E097"/>
</g>
</svg>
