<svg viewBox="0 0 43 29" fill="none" xmlns="http://www.w3.org/2000/svg">
    <g clip-path="url(#clip0_6076_20998)">
        <path d="M30.1615 10.8996H29.1769V7.46521C29.1769 3.33511 25.908 0.0996094 21.2636 0.0996094C16.6004 0.0996094 13.4231 3.40351 13.4231 7.46521V10.8996H12.4385C10.2664 10.8996 8.5 12.5142 8.5 14.4996V25.2996C8.5 27.285 10.2664 28.8996 12.4385 28.8996H30.1615C32.3336 28.8996 34.1 27.285 34.1 25.2996V14.4996C34.1 12.5142 32.3336 10.8996 30.1615 10.8996ZM15.3923 7.46521C15.3923 4.39711 17.6865 1.89961 21.2636 1.89961C24.8042 1.89961 27.2077 4.34401 27.2077 7.46521V10.8996H15.3923V7.46521ZM32.1308 25.2996C32.1308 26.2914 31.2466 27.0996 30.1615 27.0996H12.4385C11.3524 27.0996 10.4692 26.2914 10.4692 25.2996V14.4996C10.4692 13.5078 11.3524 12.6996 12.4385 12.6996H30.1615C31.2466 12.6996 32.1308 13.5078 32.1308 14.4996V25.2996Z" fill="#06E097"/>
        <path d="M21.5 15.0996L23.2678 18.3318L26.5 20.0996L23.2678 21.8674L21.5 25.0996L19.7322 21.8674L16.5 20.0996L19.7322 18.3318L21.5 15.0996Z" fill="#06E097"/>
    </g>
    <defs>
        <clipPath id="clip0_6076_20998">
            <rect width="41.6" height="28.8" fill="white" transform="translate(0.5 0.0996094)"/>
        </clipPath>
    </defs>
</svg>
