<svg xmlns="http://www.w3.org/2000/svg" fill="none" viewBox="0 0 43 29"><g clip-path="url(#a)"><path fill="#06E097" d="M30.162 10.94h-14.06l-.51-2.084c-.87-2.958.64-5.906 4.094-6.75 3.42-.835 6.434.953 7.318 3.96l.418 1.514c.141.48.68.764 1.206.635.526-.128.837-.62.697-1.1L28.906 5.6C27.737 1.62 23.663-.727 19.177.37c-4.503 1.1-6.637 5.035-5.487 8.95l.396 1.619h-1.648c-2.172 0-3.938 1.611-3.938 3.592v10.777c0 1.981 1.766 3.592 3.938 3.592h17.723c2.173 0 3.939-1.611 3.939-3.592V14.53c0-1.98-1.766-3.591-3.939-3.591Zm1.969 14.37c0 .99-.884 1.796-1.97 1.796H12.439c-1.086 0-1.969-.807-1.969-1.796V14.533c0-.99.883-1.796 1.97-1.796H30.16c1.086 0 1.97.806 1.97 1.796V25.31Z"/><path fill="#06E097" d="m21.5 15.3 1.768 3.232L26.5 20.3l-3.232 1.768L21.5 25.3l-1.768-3.232L16.5 20.3l3.232-1.768L21.5 15.3Z"/></g><defs><clipPath id="a"><path fill="#fff" d="M0 0h41.6v28.8H0z" transform="translate(.5 .1)"/></clipPath></defs></svg>