<svg width="19" height="18" viewBox="0 0 19 18" fill="none" xmlns="http://www.w3.org/2000/svg">
<mask id="mask0_7826_17204" style="mask-type:alpha" maskUnits="userSpaceOnUse" x="0" y="0" width="19" height="18">
<rect x="0.5" width="18" height="18" fill="#D9D9D9"/>
</mask>
<g mask="url(#mask0_7826_17204)">
<mask id="mask1_7826_17204" style="mask-type:alpha" maskUnits="userSpaceOnUse" x="0" y="0" width="19" height="18">
<rect x="0.5" width="18" height="18" fill="#D9D9D9"/>
</mask>
<g mask="url(#mask1_7826_17204)">
<path d="M2.37537 13.4869V12.9417C2.37537 12.5508 2.4733 12.2051 2.66918 11.9046C2.86493 11.6041 3.14518 11.3681 3.50993 11.1966C4.2488 10.8498 4.97493 10.5848 5.6883 10.4014C6.40168 10.218 7.17368 10.1263 8.0043 10.1263H8.0403C8.17018 10.1263 8.2818 10.1712 8.37518 10.2608C8.46855 10.3503 8.51524 10.4647 8.51524 10.6039C8.51524 10.7319 8.46843 10.8413 8.3748 10.9322C8.28105 11.0232 8.16905 11.0687 8.0388 11.0687H8.00262C7.21649 11.0687 6.49424 11.1507 5.83587 11.3145C5.17762 11.4785 4.53887 11.7196 3.91962 12.0377C3.70387 12.1478 3.54962 12.2805 3.45687 12.4356C3.36412 12.5907 3.31774 12.7585 3.31774 12.9388V13.5013H8.04405C8.17755 13.5013 8.28949 13.5468 8.37987 13.6377C8.47012 13.7284 8.51524 13.8409 8.51524 13.9752C8.51524 14.1093 8.47012 14.2209 8.37987 14.31C8.28949 14.3992 8.17755 14.4437 8.04405 14.4437H3.33218C3.06855 14.4437 2.84318 14.3502 2.65605 14.163C2.46893 13.9759 2.37537 13.7505 2.37537 13.4869ZM13.0827 15.3837C13.0059 15.3837 12.9291 15.3747 12.8523 15.3568C12.7754 15.339 12.7021 15.3065 12.6322 15.2595L10.4926 14.0125C10.3556 13.9308 10.2497 13.823 10.175 13.6888C10.1002 13.5548 10.0629 13.4084 10.0629 13.2495V10.7663C10.0629 10.6074 10.1002 10.461 10.175 10.327C10.2497 10.1928 10.3556 10.085 10.4926 10.0033L12.6322 8.75141C12.7009 8.70728 12.7746 8.67641 12.8532 8.65878C12.9319 8.64103 13.0093 8.63216 13.0856 8.63216C13.1618 8.63216 13.2357 8.64391 13.3074 8.66741C13.3791 8.69091 13.4494 8.71891 13.5181 8.75141L15.6575 10.0033C15.796 10.085 15.9054 10.1928 15.9856 10.327C16.066 10.461 16.1062 10.6074 16.1062 10.7663V13.2495C16.1062 13.4084 16.066 13.5548 15.9856 13.6888C15.9054 13.823 15.796 13.9308 15.6575 14.0125L13.5183 15.2605C13.4493 15.2971 13.3787 15.3268 13.3064 15.3495C13.2343 15.3723 13.1597 15.3837 13.0827 15.3837ZM8.00037 8.71972C7.27849 8.71972 6.67574 8.47872 6.19212 7.99672C5.70849 7.51472 5.46668 6.91197 5.46668 6.18847C5.46668 5.46497 5.70849 4.86141 6.19212 4.37778C6.67574 3.89416 7.27849 3.65234 8.00037 3.65234C8.72224 3.65234 9.32499 3.89416 9.80862 4.37778C10.2922 4.86141 10.5341 5.46497 10.5341 6.18847C10.5341 6.91197 10.2922 7.51472 9.80862 7.99672C9.32499 8.47872 8.72224 8.71972 8.00037 8.71972ZM8.00037 7.77734C8.44999 7.77734 8.82762 7.62547 9.13324 7.32172C9.43887 7.01784 9.59168 6.63928 9.59168 6.18603C9.59168 5.73641 9.43887 5.35878 9.13324 5.05316C8.82762 4.74753 8.44999 4.59472 8.00037 4.59472C7.55074 4.59472 7.17312 4.74753 6.86749 5.05316C6.56187 5.35878 6.40905 5.73722 6.40905 6.18847C6.40905 6.63972 6.56187 7.01734 6.86749 7.32134C7.17312 7.62534 7.55074 7.77734 8.00037 7.77734ZM11.3013 10.4457L13.0844 11.4889L14.8677 10.4457L13.0844 9.41872L11.3013 10.4457ZM13.4883 14.3408L15.3033 13.303V11.0995L13.4883 12.1862V14.3408ZM10.8657 13.3018L12.6854 14.3672V12.201L10.8657 11.1332V13.3018Z" fill="#06E097"/>
</g>
</g>
</svg>
