<svg width="24" height="16" viewBox="0 0 24 16" fill="none" xmlns="http://www.w3.org/2000/svg">
<path d="M4.91617 3.48539C8.82632 -0.377943 15.1737 -0.377943 19.0838 3.48539L19.5546 3.95391C19.752 4.14592 19.752 4.46082 19.5546 4.65284L17.945 6.24272C17.8463 6.34257 17.6868 6.34257 17.5881 6.24272L16.9427 5.60523C14.2094 2.90935 9.79057 2.90935 7.05726 5.60523L6.36634 6.28881C6.26764 6.38865 6.10819 6.38865 6.00949 6.28881L4.39987 4.69892C4.20247 4.50691 4.20247 4.192 4.39987 3.99999L4.91617 3.48539ZM22.417 6.77268L23.8519 8.18591C24.0494 8.37792 24.0494 8.69283 23.8519 8.88484L17.3907 15.2674C17.1933 15.4594 16.8744 15.4594 16.6846 15.2674L12.0987 10.7359C12.0531 10.6898 11.9696 10.6898 11.9241 10.7359L7.33818 15.2674C7.14078 15.4594 6.82189 15.4594 6.63208 15.2674L0.148054 8.88484C-0.0493515 8.69283 -0.0493515 8.37792 0.148054 8.18591L1.58304 6.77268C1.78045 6.58067 2.09934 6.58067 2.28915 6.77268L6.87504 11.3042C6.9206 11.3503 7.00411 11.3503 7.04967 11.3042L11.6356 6.77268C11.833 6.58067 12.1519 6.58067 12.3417 6.77268L16.9276 11.3042C16.9731 11.3503 17.0566 11.3503 17.1022 11.3042L21.6881 6.77268C21.9007 6.58067 22.2196 6.58067 22.417 6.77268Z" fill="url(#paint0_linear_7440_163646)"/>
<defs>
<linearGradient id="paint0_linear_7440_163646" x1="10.8281" y1="-18.8853" x2="10.8281" y2="15.1928" gradientUnits="userSpaceOnUse">
<stop offset="0.469429" stop-color="#5D9DF6"/>
<stop offset="1" stop-color="#006FFF"/>
</linearGradient>
</defs>
</svg>
